<svg xmlns="http://www.w3.org/2000/svg" xmlns:xlink="http://www.w3.org/1999/xlink" version="1.1" x="0px" y="0px" width="496.19px" height="90.735px" viewBox="0 0 496.19 90.735" enable-background="new 0 0 496.19 90.735" xml:space="preserve"><g><path d="M33.875 57.615c0-6.286-0.778-10.828-2.331-13.627c-1.554-2.798-4.453-4.198-8.696-4.198c-1.517 0-3.183 0.115-5.002 0.3 s-3.183 0.422-4.092 0.575v48.53H0V31.05c2.652-0.766 6.119-1.495 10.401-2.185c4.281-0.69 8.81-1.035 13.584-1.035 c4.092 0 7.4 0.5 10.1 1.61c2.615 1.1 4.8 2.5 6.5 4.255c0.833-0.613 1.893-1.265 3.183-1.955 c1.288-0.69 2.729-1.322 4.32-1.897s3.277-1.053 5.059-1.438c1.78-0.383 3.581-0.575 5.399-0.575c4.622 0 8.4 0.7 11.4 2 c2.993 1.3 5.3 3.2 7 5.635c1.705 2.4 2.9 5.3 3.5 8.74c0.643 3.4 1 7.2 1 11.212v33.81H67.751V57.615 c0-6.286-0.759-10.828-2.273-13.627c-1.517-2.798-4.434-4.198-8.753-4.198c-2.199 0-4.282 0.365-6.252 1.1 c-1.972 0.729-3.449 1.438-4.434 2.127c0.606 1.9 1 4 1.2 6.095c0.228 2.1 0.3 4.4 0.3 6.9V89.24H33.875V57.615z "/><path d="M147.096 87.4c-2.654 0.689-6.101 1.399-10.345 2.127c-4.245 0.729-8.906 1.093-13.982 1.1 c-4.774 0-8.772-0.69-11.993-2.069c-3.222-1.381-5.798-3.296-7.73-5.75c-1.933-2.453-3.316-5.386-4.149-8.798 c-0.834-3.411-1.25-7.147-1.25-11.213V29.095h13.755v31.51c0 6.4 0.9 11 2.8 13.8c1.856 2.8 5.1 4.1 9.7 4.1 c1.666 0 3.428-0.075 5.286-0.229c1.856-0.153 3.24-0.345 4.149-0.575V29.095h13.755V87.4z"/><path d="M179.492 79.235c3.638 0 6.29-0.44 7.958-1.323c1.666-0.88 2.5-2.395 2.5-4.542c0-1.993-0.892-3.64-2.671-4.944 c-1.781-1.303-4.717-2.721-8.81-4.256c-2.501-0.92-4.794-1.896-6.877-2.932c-2.085-1.035-3.885-2.243-5.399-3.623 c-1.517-1.38-2.71-3.047-3.581-5.002c-0.872-1.955-1.307-4.35-1.307-7.188c0-5.52 2.007-9.87 6.025-13.053 c4.016-3.18 9.472-4.772 16.369-4.772c3.485 0 6.8 0.3 10 0.978c3.183 0.7 5.6 1.3 7.2 1.897l-2.501 11.3 c-1.517-0.69-3.449-1.322-5.798-1.897c-2.35-0.575-5.078-0.862-8.184-0.862c-2.805 0-5.078 0.479-6.821 1.4 c-1.744 0.959-2.614 2.435-2.614 4.427c0 1 0.2 1.9 0.5 2.645c0.341 0.8 0.9 1.5 1.8 2.1 c0.833 0.7 1.9 1.3 3.3 1.955c1.364 0.7 3 1.3 5 2.013c3.257 1.2 6 2.4 8.3 3.6 c2.273 1.2 4.1 2.5 5.6 4.025c1.478 1.5 2.6 3.2 3.2 5.118c0.683 1.9 1 4.2 1 6.9 c0 5.75-2.103 10.102-6.309 13.052s-10.213 4.428-18.018 4.428c-5.229 0-9.435-0.442-12.618-1.323 c-3.183-0.88-5.419-1.59-6.707-2.127l2.387-11.615c2.046 0.8 4.5 1.6 7.3 2.4 C172.615 78.9 175.9 79.2 179.5 79.235z"/><path d="M213.252 59.455c0-5.29 0.776-9.928 2.331-13.915c1.552-3.985 3.618-7.302 6.195-9.947c2.575-2.645 5.53-4.638 8.866-5.98 c3.334-1.34 6.744-2.013 10.231-2.013c8.185 0 14.6 2.6 19.2 7.705c4.584 5.1 6.9 12.8 6.9 23 c0 0.767-0.02 1.63-0.057 2.587c-0.039 0.959-0.096 1.822-0.171 2.588h-39.218c0.378 4.8 2.1 8.6 5.1 11.2 c2.993 2.6 7.3 4 13 3.967c3.334 0 6.384-0.305 9.151-0.92c2.766-0.613 4.944-1.266 6.536-1.955l1.818 11.4 c-0.758 0.385-1.801 0.787-3.126 1.208c-1.326 0.422-2.842 0.805-4.547 1.149c-1.705 0.346-3.543 0.633-5.514 0.9 c-1.971 0.229-3.979 0.345-6.024 0.345c-5.229 0-9.776-0.787-13.641-2.357c-3.865-1.571-7.048-3.756-9.549-6.556 c-2.501-2.797-4.359-6.095-5.57-9.89C213.858 68.1 213.3 64 213.3 59.455z M253.152 53.2 c0-1.916-0.267-3.737-0.796-5.462c-0.53-1.725-1.307-3.22-2.33-4.485c-1.023-1.265-2.273-2.261-3.751-2.99 c-1.479-0.728-3.24-1.092-5.286-1.092c-2.123 0-3.979 0.402-5.57 1.208c-1.591 0.805-2.938 1.86-4.035 3.2 c-1.1 1.304-1.952 2.799-2.558 4.485c-0.607 1.687-1.023 3.412-1.251 5.175H253.152z"/><path d="M280.775 13.225l13.755-2.3v18.17h21.144V40.71H294.53v24.495c0 4.8 0.8 8.3 2.3 10.3 c1.515 2.1 4.1 3.1 7.7 3.105c2.501 0 4.718-0.268 6.65-0.805c1.933-0.535 3.467-1.035 4.604-1.495l2.273 11 c-1.591 0.689-3.677 1.399-6.252 2.127c-2.577 0.729-5.609 1.093-9.094 1.093c-4.245 0-7.787-0.575-10.629-1.726 c-2.842-1.149-5.098-2.816-6.764-5.002c-1.668-2.186-2.842-4.83-3.524-7.936c-0.682-3.104-1.022-6.649-1.022-10.637V13.225z"/><path d="M324.655 59.455c0-5.29 0.776-9.928 2.331-13.915c1.552-3.985 3.618-7.302 6.195-9.947c2.575-2.645 5.53-4.638 8.866-5.98 c3.334-1.34 6.744-2.013 10.231-2.013c8.185 0 14.6 2.6 19.2 7.705c4.584 5.1 6.9 12.8 6.9 23 c0 0.767-0.02 1.63-0.057 2.587c-0.039 0.959-0.096 1.822-0.171 2.588h-39.218c0.378 4.8 2.1 8.6 5.1 11.2 c2.993 2.6 7.3 4 13 3.967c3.334 0 6.384-0.305 9.151-0.92c2.766-0.613 4.944-1.266 6.536-1.955l1.818 11.4 c-0.758 0.385-1.801 0.787-3.126 1.208c-1.326 0.422-2.842 0.805-4.547 1.149c-1.705 0.346-3.543 0.633-5.514 0.9 c-1.971 0.229-3.979 0.345-6.024 0.345c-5.229 0-9.776-0.787-13.641-2.357c-3.865-1.571-7.048-3.756-9.549-6.556 c-2.501-2.797-4.359-6.095-5.57-9.89C325.262 68.1 324.7 64 324.7 59.455z M364.556 53.2 c0-1.916-0.267-3.737-0.796-5.462c-0.53-1.725-1.307-3.22-2.33-4.485c-1.023-1.265-2.273-2.261-3.751-2.99 c-1.479-0.728-3.24-1.092-5.286-1.092c-2.123 0-3.979 0.402-5.57 1.208c-1.591 0.805-2.938 1.86-4.035 3.2 c-1.1 1.304-1.952 2.799-2.558 4.485c-0.607 1.687-1.023 3.412-1.251 5.175H364.556z"/><path d="M389.564 59.225c0-4.445 0.683-8.605 2.047-12.478c1.364-3.87 3.314-7.225 5.854-10.062c2.539-2.835 5.627-5.06 9.265-6.67 s7.73-2.415 12.277-2.415c5.607 0 10.9 1 15.9 3.105l-2.956 11.385c-1.592-0.69-3.393-1.265-5.399-1.725 c-2.009-0.46-4.149-0.69-6.423-0.69c-5.382 0-9.474 1.707-12.277 5.118c-2.804 3.412-4.206 8.222-4.206 14.4 c0 6 1.3 10.7 4 14.203c2.651 3.5 7.1 5.2 13.4 5.232c2.349 0 4.661-0.23 6.935-0.689 c2.273-0.461 4.243-1.035 5.911-1.726l1.933 11.5c-1.517 0.768-3.809 1.458-6.878 2.07s-6.234 0.92-9.491 0.9 c-5.078 0-9.492-0.787-13.243-2.357c-3.752-1.571-6.86-3.756-9.322-6.556c-2.463-2.797-4.302-6.133-5.513-10.004 C390.171 67.9 389.6 63.8 389.6 59.225z"/><path d="M446.514 89.24V2.3L460.269 0v29.785c1.515-0.535 3.277-0.996 5.286-1.38c2.007-0.383 3.996-0.575 5.968-0.575 c4.774 0 8.7 0.7 11.9 2.013c3.144 1.3 5.7 3.2 7.6 5.635c1.894 2.4 3.2 5.3 4 8.7 c0.796 3.4 1.2 7.1 1.2 11.27v33.81h-13.755V57.615c0-3.22-0.21-5.96-0.625-8.223c-0.418-2.26-1.1-4.1-2.047-5.52 c-0.948-1.417-2.217-2.453-3.808-3.105c-1.592-0.65-3.563-0.978-5.911-0.978c-1.819 0-3.677 0.192-5.57 0.6 c-1.896 0.385-3.297 0.729-4.206 1.035v47.84H446.514z"/></g></svg>