<?xml version="1.0" encoding="utf-8"?>
<!-- Generator: Adobe Illustrator 15.0.0, SVG Export Plug-In . SVG Version: 6.00 Build 0)  -->
<!DOCTYPE svg PUBLIC "-//W3C//DTD SVG 1.1//EN" "http://www.w3.org/Graphics/SVG/1.1/DTD/svg11.dtd">
<svg version="1.1" id="Layer_1" xmlns="http://www.w3.org/2000/svg" xmlns:xlink="http://www.w3.org/1999/xlink" x="0px" y="0px"
	 width="640px" height="320px" viewBox="0 0 640 320" enable-background="new 0 0 640 320" xml:space="preserve">
<g>
	<path d="M433.183,143.058c-1.023-1.265-2.273-2.261-3.751-2.99c-1.479-0.728-3.24-1.092-5.286-1.092
		c-2.123,0-3.979,0.402-5.57,1.208c-1.591,0.805-2.938,1.86-4.035,3.163c-1.1,1.304-1.952,2.797-2.558,4.482
		c-0.607,1.687-1.023,3.172-1.251,5.172h25.577c0-2-0.267-3.735-0.796-5.46C434.982,145.815,434.206,144.322,433.183,143.058z"/>
	<path d="M321.779,143.058c-1.023-1.265-2.273-2.261-3.751-2.99c-1.479-0.728-3.24-1.092-5.286-1.092
		c-2.123,0-3.979,0.402-5.57,1.208c-1.591,0.805-2.938,1.86-4.035,3.163c-1.1,1.304-1.952,2.797-2.558,4.482
		c-0.607,1.687-1.023,3.172-1.251,5.172h25.577c0-2-0.267-3.735-0.796-5.46C323.579,145.815,322.803,144.322,321.779,143.058z"/>
	<path d="M0,0v320h640V0H0z M153,189h-13v-31.625c0-6.285-1.007-10.828-2.521-13.627c-1.517-2.798-4.558-4.198-8.877-4.198
		c-2.199,0-4.344,0.365-6.314,1.093c-1.972,0.729-3.48,1.438-4.465,2.127c0.606,1.917,0.816,3.95,1.043,6.095
		c0.228,2.146,0.134,4.447,0.134,6.9V189h-13v-31.625c0-6.285-0.964-10.828-2.517-13.627c-1.554-2.798-4.545-4.198-8.789-4.198
		c-1.517,0-2.983,0.115-4.802,0.345S86,140.317,86,140.47V189H72v-58.19c2-0.766,5.996-1.495,10.278-2.185
		c4.281-0.69,8.749-1.035,13.523-1.035c4.092,0,7.415,0.538,10.029,1.61c2.615,1.074,4.777,2.492,6.521,4.255
		c0.833-0.613,1.885-1.265,3.175-1.955c1.288-0.69,2.725-1.322,4.316-1.897s3.275-1.053,5.057-1.438
		c1.78-0.383,3.58-0.575,5.398-0.575c4.622,0,8.429,0.672,11.424,2.013c2.993,1.342,5.343,3.22,7.048,5.635s2.75,5.33,3.395,8.74
		c0.643,3.412,0.836,7.149,0.836,11.212V189z M219,187.16c-3,0.689-6.177,1.399-10.42,2.127c-4.245,0.729-8.944,1.093-14.02,1.093
		c-4.774,0-8.791-0.69-12.011-2.069c-3.222-1.381-5.808-3.296-7.74-5.75c-1.933-2.453-3.521-5.386-4.354-8.798
		c-0.834-3.411-1.455-7.147-1.455-11.213V129h14v31.365c0,6.439,1.004,11.039,2.862,13.8c1.856,2.76,5.134,4.14,9.758,4.14
		c1.666,0,3.4-0.075,5.259-0.229c1.855-0.153,3.121-0.345,4.121-0.575V129h14V187.16z M269.149,186.067
		c-4.206,2.95-10.213,4.428-18.018,4.428c-5.229,0-9.435-0.442-12.618-1.323c-3.183-0.88-5.419-1.59-6.707-2.127l2.387-11.615
		c2.046,0.845,4.49,1.65,7.332,2.416c2.842,0.767,6.082,1.149,9.719,1.149s6.29-0.44,7.958-1.323c1.666-0.88,2.5-2.395,2.5-4.542
		c0-1.993-0.892-3.64-2.671-4.944c-1.781-1.303-4.717-2.721-8.81-4.256c-2.501-0.92-4.794-1.896-6.877-2.932
		c-2.085-1.035-3.885-2.243-5.399-3.623c-1.517-1.38-2.71-3.047-3.581-5.002c-0.872-1.956-1.307-4.351-1.307-7.188
		c0-5.52,2.007-9.87,6.025-13.053c4.016-3.18,9.472-4.772,16.369-4.772c3.485,0,6.82,0.327,10.004,0.978
		c3.183,0.652,5.569,1.285,7.161,1.897l-2.501,11.27c-1.517-0.69-3.449-1.322-5.798-1.897c-2.35-0.575-5.078-0.862-8.184-0.862
		c-2.805,0-5.078,0.479-6.821,1.438c-1.744,0.959-2.614,2.435-2.614,4.427c0,0.998,0.17,1.88,0.511,2.645
		c0.341,0.768,0.927,1.477,1.762,2.127c0.833,0.652,1.933,1.305,3.296,1.956c1.364,0.652,3.03,1.322,5.002,2.012
		c3.257,1.228,6.025,2.436,8.298,3.623c2.273,1.189,4.149,2.529,5.627,4.025c1.478,1.494,2.558,3.201,3.239,5.117
		c0.683,1.917,1.023,4.217,1.023,6.9C275.458,178.766,273.355,183.117,269.149,186.067z M338.604,160.532
		c-0.039,0.959-0.096,1.468-0.171,2.468h-39.218c0.378,5,2.063,8.688,5.059,11.333c2.993,2.645,7.332,4.026,13.016,4.026
		c3.334,0,6.384-0.274,9.151-0.89c2.766-0.613,4.944-1.25,6.536-1.939l1.818,11.392c-0.758,0.385-1.801,0.791-3.126,1.212
		c-1.326,0.422-2.842,0.807-4.547,1.151c-1.705,0.346-3.543,0.634-5.514,0.864c-1.971,0.229-3.979,0.346-6.024,0.346
		c-5.229,0-9.776-0.787-13.641-2.357c-3.865-1.571-7.048-3.756-9.549-6.556c-2.501-2.797-4.359-6.095-5.57-9.89
		c-1.213-3.795-1.819-7.952-1.819-12.478c0-5.29,0.776-9.928,2.331-13.915c1.552-3.985,3.618-7.302,6.195-9.947
		c2.575-2.645,5.53-4.638,8.866-5.98c3.334-1.34,6.744-2.013,10.231-2.013c8.185,0,14.567,2.57,19.154,7.705
		c4.584,5.137,6.877,12.745,6.877,22.939C338.66,158.772,338.641,159.575,338.604,160.532z M383.562,189.287
		c-2.577,0.729-5.609,1.093-9.094,1.093c-4.245,0-7.787-0.575-10.629-1.726c-2.842-1.149-5.098-2.816-6.764-5.002
		c-1.668-2.186-2.606-4.83-3.288-7.936c-0.682-3.104-0.787-6.649-0.787-10.637v-52.095l13-2.3V129h21v11h-21v24.965
		c0,4.83,0.897,8.28,2.415,10.35c1.515,2.07,4.163,3.105,7.8,3.105c2.502,0,4.754-0.268,6.687-0.805
		c1.933-0.535,3.484-1.035,4.621-1.495l2.282,11.04C388.214,187.85,386.137,188.56,383.562,189.287z M450.007,160.532
		c-0.039,0.959-0.096,1.468-0.171,2.468h-39.218c0.378,5,2.063,8.688,5.059,11.333c2.993,2.645,7.332,4.026,13.016,4.026
		c3.334,0,6.384-0.274,9.151-0.89c2.766-0.613,4.944-1.25,6.536-1.939l1.818,11.392c-0.758,0.385-1.801,0.791-3.126,1.212
		c-1.326,0.422-2.842,0.807-4.547,1.151c-1.705,0.346-3.543,0.634-5.514,0.864c-1.971,0.229-3.979,0.346-6.024,0.346
		c-5.229,0-9.776-0.787-13.641-2.357c-3.865-1.571-7.048-3.756-9.549-6.556c-2.501-2.797-4.359-6.095-5.57-9.89
		c-1.213-3.795-1.819-7.952-1.819-12.478c0-5.29,0.776-9.928,2.331-13.915c1.552-3.985,3.618-7.302,6.195-9.947
		c2.575-2.645,5.53-4.638,8.866-5.98c3.334-1.34,6.744-2.013,10.231-2.013c8.185,0,14.567,2.57,19.154,7.705
		c4.584,5.137,6.877,12.745,6.877,22.939C450.063,158.772,450.044,159.575,450.007,160.532z M500.706,189.575
		c-3.069,0.612-6.234,0.92-9.491,0.92c-5.078,0-9.492-0.787-13.243-2.357c-3.752-1.571-6.86-3.756-9.322-6.556
		c-2.463-2.797-4.302-6.133-5.513-10.004c-1.213-3.871-1.819-8.068-1.819-12.594c0-4.445,0.683-8.604,2.047-12.477
		c1.364-3.87,3.314-7.225,5.854-10.062c2.539-2.835,5.627-5.06,9.265-6.67s7.73-2.415,12.277-2.415
		c5.607,0,10.913,1.035,15.915,3.105l-2.956,11.385c-1.592-0.69-3.393-1.265-5.399-1.725c-2.009-0.46-4.149-0.69-6.423-0.69
		c-5.382,0-9.474,1.707-12.277,5.118c-2.804,3.412-4.206,8.223-4.206,14.432c0,5.98,1.325,10.715,3.979,14.203
		c2.651,3.49,7.122,5.232,13.413,5.232c2.349,0,4.661-0.23,6.935-0.689c2.273-0.461,4.243-1.035,5.911-1.726l1.933,11.5
		C506.067,188.272,503.775,188.963,500.706,189.575z M568,189h-14v-31.625c0-3.221-0.115-5.961-0.531-8.223
		c-0.418-2.26-1.052-4.1-1.999-5.52c-0.948-1.417-2.193-2.453-3.784-3.105c-1.592-0.65-3.552-0.978-5.899-0.978
		c-1.819,0-3.682,0.192-5.575,0.575c-1.896,0.385-3.211,0.729-4.211,1.035V189h-14v-86.94l14-2.3v29.785
		c2-0.535,3.288-0.996,5.297-1.38c2.007-0.383,4.002-0.575,5.973-0.575c4.775,0,8.736,0.672,11.882,2.013
		c3.144,1.342,5.666,3.22,7.562,5.635c1.894,2.415,3.269,5.31,4.063,8.683c0.796,3.375,1.224,7.13,1.224,11.27V189z"/>
</g>
</svg>
